# xmcd CD database file
#
# Track frame offsets:
#	150
#	15911
#	42581
#	64359
#	89469
#	118758
#	142056
#	160523
#	183962
#	215224
#	240650
#	260312
#
# Disc length: 3864 seconds
#
# Revision: 0
# Processed by: cddbd v1.4PL0 Copyright (c) Steve Scherf et al.
# Submitted via: CDex 1.51
#
DISCID=aa0f160c
DTITLE=Jazz Point Big Band Wangen - 10 Jahre
DYEAR=1900
DGENRE=Jazz
TTITLE0=Lover Come Back
TTITLE1=Big Dipper
TTITLE2=The Last Basket
TTITLE3=Salute To C.B.
TTITLE4=Klei Kommt Se
TTITLE5=Good Bye Pork Pie Hat
TTITLE6=All Of Me
TTITLE7=It Don´t Mean A Thing, If, If It Ain´t Got That Swing
TTITLE8=Stolen Momements
TTITLE9=Love For Sale
TTITLE10=Flight Of The Foo-Birds
TTITLE11=Mr. Clean
EXTD=
EXTT0=
EXTT1=
EXTT2=
EXTT3=
EXTT4=
EXTT5=
EXTT6=
EXTT7=
EXTT8=
EXTT9=
EXTT10=
EXTT11=
PLAYORDER=
